<svg xmlns="http://www.w3.org/2000/svg" xmlns:xlink="http://www.w3.org/1999/xlink" width="500" zoomAndPan="magnify" viewBox="0 0 375 374.999991" height="500" preserveAspectRatio="xMidYMid meet" version="1.0"><defs><g/></defs><g fill="#000000" fill-opacity="1"><g transform="translate(5.863282, 204.749987)"><g><path d="M 23.6875 0 L 11.765625 -15.65625 L 11.765625 0 L 3.125 0 L 3.125 -35.453125 L 11.765625 -35.453125 L 11.765625 -19.890625 L 23.578125 -35.453125 L 33.734375 -35.453125 L 20 -18.078125 L 34.234375 0 Z M 23.6875 0 "/></g></g></g><g fill="#000000" fill-opacity="1"><g transform="translate(41.059103, 204.749987)"><g><path d="M 7.46875 -31.109375 C 5.957031 -31.109375 4.722656 -31.550781 3.765625 -32.4375 C 2.804688 -33.332031 2.328125 -34.4375 2.328125 -35.75 C 2.328125 -37.101562 2.804688 -38.222656 3.765625 -39.109375 C 4.722656 -40.003906 5.957031 -40.453125 7.46875 -40.453125 C 8.957031 -40.453125 10.179688 -40.003906 11.140625 -39.109375 C 12.097656 -38.222656 12.578125 -37.101562 12.578125 -35.75 C 12.578125 -34.4375 12.097656 -33.332031 11.140625 -32.4375 C 10.179688 -31.550781 8.957031 -31.109375 7.46875 -31.109375 Z M 11.765625 -28.171875 L 11.765625 0 L 3.125 0 L 3.125 -28.171875 Z M 11.765625 -28.171875 "/></g></g></g><g fill="#000000" fill-opacity="1"><g transform="translate(55.955464, 204.749987)"><g><path d="M 18.84375 -7.328125 L 18.84375 0 L 14.4375 0 C 11.3125 0 8.875 -0.765625 7.125 -2.296875 C 5.375 -3.828125 4.5 -6.328125 4.5 -9.796875 L 4.5 -21.015625 L 1.0625 -21.015625 L 1.0625 -28.171875 L 4.5 -28.171875 L 4.5 -35.046875 L 13.125 -35.046875 L 13.125 -28.171875 L 18.78125 -28.171875 L 18.78125 -21.015625 L 13.125 -21.015625 L 13.125 -9.703125 C 13.125 -8.859375 13.328125 -8.25 13.734375 -7.875 C 14.140625 -7.507812 14.8125 -7.328125 15.75 -7.328125 Z M 18.84375 -7.328125 "/></g></g></g><g fill="#000000" fill-opacity="1"><g transform="translate(76.456901, 204.749987)"><g><path d="M 1.40625 -14.09375 C 1.40625 -17.019531 2.003906 -19.578125 3.203125 -21.765625 C 4.398438 -23.953125 6.066406 -25.632812 8.203125 -26.8125 C 10.335938 -27.988281 12.785156 -28.578125 15.546875 -28.578125 C 19.085938 -28.578125 22.046875 -27.648438 24.421875 -25.796875 C 26.796875 -23.953125 28.351562 -21.347656 29.09375 -17.984375 L 19.890625 -17.984375 C 19.117188 -20.128906 17.625 -21.203125 15.40625 -21.203125 C 13.820312 -21.203125 12.554688 -20.585938 11.609375 -19.359375 C 10.671875 -18.140625 10.203125 -16.382812 10.203125 -14.09375 C 10.203125 -11.800781 10.671875 -10.039062 11.609375 -8.8125 C 12.554688 -7.582031 13.820312 -6.96875 15.40625 -6.96875 C 17.625 -6.96875 19.117188 -8.046875 19.890625 -10.203125 L 29.09375 -10.203125 C 28.351562 -6.898438 26.785156 -4.304688 24.390625 -2.421875 C 22.003906 -0.535156 19.054688 0.40625 15.546875 0.40625 C 12.785156 0.40625 10.335938 -0.179688 8.203125 -1.359375 C 6.066406 -2.535156 4.398438 -4.21875 3.203125 -6.40625 C 2.003906 -8.601562 1.40625 -11.164062 1.40625 -14.09375 Z M 1.40625 -14.09375 "/></g></g></g><g fill="#000000" fill-opacity="1"><g transform="translate(107.007073, 204.749987)"><g><path d="M 20.453125 -28.484375 C 23.679688 -28.484375 26.269531 -27.410156 28.21875 -25.265625 C 30.175781 -23.128906 31.15625 -20.195312 31.15625 -16.46875 L 31.15625 0 L 22.578125 0 L 22.578125 -15.296875 C 22.578125 -17.179688 22.085938 -18.644531 21.109375 -19.6875 C 20.128906 -20.738281 18.816406 -21.265625 17.171875 -21.265625 C 15.523438 -21.265625 14.210938 -20.738281 13.234375 -19.6875 C 12.253906 -18.644531 11.765625 -17.179688 11.765625 -15.296875 L 11.765625 0 L 3.125 0 L 3.125 -37.375 L 11.765625 -37.375 L 11.765625 -24.390625 C 12.640625 -25.640625 13.832031 -26.632812 15.34375 -27.375 C 16.863281 -28.113281 18.566406 -28.484375 20.453125 -28.484375 Z M 20.453125 -28.484375 "/></g></g></g><g fill="#000000" fill-opacity="1"><g transform="translate(141.04148, 204.749987)"><g><path d="M 29.6875 -14.546875 C 29.6875 -13.734375 29.640625 -12.890625 29.546875 -12.015625 L 10 -12.015625 C 10.132812 -10.265625 10.695312 -8.925781 11.6875 -8 C 12.6875 -7.070312 13.910156 -6.609375 15.359375 -6.609375 C 17.503906 -6.609375 19 -7.519531 19.84375 -9.34375 L 29.03125 -9.34375 C 28.5625 -7.488281 27.710938 -5.820312 26.484375 -4.34375 C 25.253906 -2.863281 23.710938 -1.703125 21.859375 -0.859375 C 20.015625 -0.015625 17.945312 0.40625 15.65625 0.40625 C 12.894531 0.40625 10.4375 -0.179688 8.28125 -1.359375 C 6.125 -2.535156 4.4375 -4.21875 3.21875 -6.40625 C 2.007812 -8.601562 1.40625 -11.164062 1.40625 -14.09375 C 1.40625 -17.019531 2.003906 -19.578125 3.203125 -21.765625 C 4.398438 -23.953125 6.078125 -25.632812 8.234375 -26.8125 C 10.390625 -27.988281 12.863281 -28.578125 15.65625 -28.578125 C 18.382812 -28.578125 20.804688 -28.003906 22.921875 -26.859375 C 25.046875 -25.722656 26.703125 -24.09375 27.890625 -21.96875 C 29.085938 -19.84375 29.6875 -17.367188 29.6875 -14.546875 Z M 20.859375 -16.8125 C 20.859375 -18.289062 20.351562 -19.46875 19.34375 -20.34375 C 18.332031 -21.226562 17.066406 -21.671875 15.546875 -21.671875 C 14.097656 -21.671875 12.878906 -21.25 11.890625 -20.40625 C 10.898438 -19.5625 10.285156 -18.363281 10.046875 -16.8125 Z M 20.859375 -16.8125 "/></g></g></g><g fill="#000000" fill-opacity="1"><g transform="translate(172.147114, 204.749987)"><g><path d="M 20.296875 -28.484375 C 23.597656 -28.484375 26.234375 -27.410156 28.203125 -25.265625 C 30.171875 -23.128906 31.15625 -20.195312 31.15625 -16.46875 L 31.15625 0 L 22.578125 0 L 22.578125 -15.296875 C 22.578125 -17.179688 22.085938 -18.644531 21.109375 -19.6875 C 20.128906 -20.738281 18.816406 -21.265625 17.171875 -21.265625 C 15.523438 -21.265625 14.210938 -20.738281 13.234375 -19.6875 C 12.253906 -18.644531 11.765625 -17.179688 11.765625 -15.296875 L 11.765625 0 L 3.125 0 L 3.125 -28.171875 L 11.765625 -28.171875 L 11.765625 -24.4375 C 12.640625 -25.6875 13.816406 -26.671875 15.296875 -27.390625 C 16.785156 -28.117188 18.453125 -28.484375 20.296875 -28.484375 Z M 20.296875 -28.484375 "/></g></g></g><g fill="#000000" fill-opacity="1"><g transform="translate(206.183581, 204.749987)"><g><path d="M 31 -35.203125 L 31 0 L 26.40625 0 L 26.40625 -15.953125 L 8.484375 -15.953125 L 8.484375 0 L 3.890625 0 L 3.890625 -35.203125 L 8.484375 -35.203125 L 8.484375 -19.75 L 26.40625 -19.75 L 26.40625 -35.203125 Z M 31 -35.203125 "/></g></g></g><g fill="#000000" fill-opacity="1"><g transform="translate(241.126922, 204.749987)"><g><path d="M 29.140625 -14.890625 C 29.140625 -14.015625 29.085938 -13.09375 28.984375 -12.125 L 6.875 -12.125 C 7.039062 -9.394531 7.972656 -7.265625 9.671875 -5.734375 C 11.367188 -4.203125 13.429688 -3.4375 15.859375 -3.4375 C 17.847656 -3.4375 19.503906 -3.898438 20.828125 -4.828125 C 22.160156 -5.753906 23.097656 -6.988281 23.640625 -8.53125 L 28.578125 -8.53125 C 27.835938 -5.875 26.359375 -3.710938 24.140625 -2.046875 C 21.921875 -0.378906 19.160156 0.453125 15.859375 0.453125 C 13.234375 0.453125 10.882812 -0.132812 8.8125 -1.3125 C 6.738281 -2.488281 5.113281 -4.160156 3.9375 -6.328125 C 2.757812 -8.503906 2.171875 -11.023438 2.171875 -13.890625 C 2.171875 -16.753906 2.742188 -19.257812 3.890625 -21.40625 C 5.035156 -23.5625 6.640625 -25.21875 8.703125 -26.375 C 10.773438 -27.539062 13.160156 -28.125 15.859375 -28.125 C 18.484375 -28.125 20.804688 -27.550781 22.828125 -26.40625 C 24.847656 -25.257812 26.40625 -23.6875 27.5 -21.6875 C 28.59375 -19.6875 29.140625 -17.421875 29.140625 -14.890625 Z M 24.390625 -15.859375 C 24.390625 -17.609375 24 -19.113281 23.21875 -20.375 C 22.445312 -21.632812 21.394531 -22.59375 20.0625 -23.25 C 18.738281 -23.90625 17.269531 -24.234375 15.65625 -24.234375 C 13.332031 -24.234375 11.351562 -23.492188 9.71875 -22.015625 C 8.082031 -20.535156 7.148438 -18.484375 6.921875 -15.859375 Z M 24.390625 -15.859375 "/></g></g></g><g fill="#000000" fill-opacity="1"><g transform="translate(272.434545, 204.749987)"><g><path d="M 8.484375 -37.375 L 8.484375 0 L 3.890625 0 L 3.890625 -37.375 Z M 8.484375 -37.375 "/></g></g></g><g fill="#000000" fill-opacity="1"><g transform="translate(284.856603, 204.749987)"><g><path d="M 8.484375 -22.578125 C 9.390625 -24.160156 10.742188 -25.476562 12.546875 -26.53125 C 14.347656 -27.59375 16.445312 -28.125 18.84375 -28.125 C 21.289062 -28.125 23.515625 -27.535156 25.515625 -26.359375 C 27.523438 -25.179688 29.101562 -23.523438 30.25 -21.390625 C 31.394531 -19.253906 31.96875 -16.769531 31.96875 -13.9375 C 31.96875 -11.144531 31.394531 -8.65625 30.25 -6.46875 C 29.101562 -4.28125 27.523438 -2.578125 25.515625 -1.359375 C 23.515625 -0.148438 21.289062 0.453125 18.84375 0.453125 C 16.476562 0.453125 14.394531 -0.078125 12.59375 -1.140625 C 10.789062 -2.203125 9.421875 -3.519531 8.484375 -5.09375 L 8.484375 13.125 L 3.890625 13.125 L 3.890625 -27.671875 L 8.484375 -27.671875 Z M 27.265625 -13.9375 C 27.265625 -16.019531 26.84375 -17.835938 26 -19.390625 C 25.164062 -20.941406 24.03125 -22.117188 22.59375 -22.921875 C 21.164062 -23.734375 19.59375 -24.140625 17.875 -24.140625 C 16.195312 -24.140625 14.640625 -23.726562 13.203125 -22.90625 C 11.773438 -22.082031 10.628906 -20.882812 9.765625 -19.3125 C 8.910156 -17.75 8.484375 -15.941406 8.484375 -13.890625 C 8.484375 -11.796875 8.910156 -9.96875 9.765625 -8.40625 C 10.628906 -6.84375 11.773438 -5.644531 13.203125 -4.8125 C 14.640625 -3.988281 16.195312 -3.578125 17.875 -3.578125 C 19.59375 -3.578125 21.164062 -3.988281 22.59375 -4.8125 C 24.03125 -5.644531 25.164062 -6.84375 26 -8.40625 C 26.84375 -9.96875 27.265625 -11.8125 27.265625 -13.9375 Z M 27.265625 -13.9375 "/></g></g></g><g fill="#000000" fill-opacity="1"><g transform="translate(318.992003, 204.749987)"><g><path d="M 29.140625 -14.890625 C 29.140625 -14.015625 29.085938 -13.09375 28.984375 -12.125 L 6.875 -12.125 C 7.039062 -9.394531 7.972656 -7.265625 9.671875 -5.734375 C 11.367188 -4.203125 13.429688 -3.4375 15.859375 -3.4375 C 17.847656 -3.4375 19.503906 -3.898438 20.828125 -4.828125 C 22.160156 -5.753906 23.097656 -6.988281 23.640625 -8.53125 L 28.578125 -8.53125 C 27.835938 -5.875 26.359375 -3.710938 24.140625 -2.046875 C 21.921875 -0.378906 19.160156 0.453125 15.859375 0.453125 C 13.234375 0.453125 10.882812 -0.132812 8.8125 -1.3125 C 6.738281 -2.488281 5.113281 -4.160156 3.9375 -6.328125 C 2.757812 -8.503906 2.171875 -11.023438 2.171875 -13.890625 C 2.171875 -16.753906 2.742188 -19.257812 3.890625 -21.40625 C 5.035156 -23.5625 6.640625 -25.21875 8.703125 -26.375 C 10.773438 -27.539062 13.160156 -28.125 15.859375 -28.125 C 18.484375 -28.125 20.804688 -27.550781 22.828125 -26.40625 C 24.847656 -25.257812 26.40625 -23.6875 27.5 -21.6875 C 28.59375 -19.6875 29.140625 -17.421875 29.140625 -14.890625 Z M 24.390625 -15.859375 C 24.390625 -17.609375 24 -19.113281 23.21875 -20.375 C 22.445312 -21.632812 21.394531 -22.59375 20.0625 -23.25 C 18.738281 -23.90625 17.269531 -24.234375 15.65625 -24.234375 C 13.332031 -24.234375 11.351562 -23.492188 9.71875 -22.015625 C 8.082031 -20.535156 7.148438 -18.484375 6.921875 -15.859375 Z M 24.390625 -15.859375 "/></g></g></g><g fill="#000000" fill-opacity="1"><g transform="translate(350.299626, 204.749987)"><g><path d="M 8.484375 -23.171875 C 9.296875 -24.753906 10.445312 -25.984375 11.9375 -26.859375 C 13.4375 -27.734375 15.265625 -28.171875 17.421875 -28.171875 L 17.421875 -23.4375 L 16.203125 -23.4375 C 11.054688 -23.4375 8.484375 -20.640625 8.484375 -15.046875 L 8.484375 0 L 3.890625 0 L 3.890625 -27.671875 L 8.484375 -27.671875 Z M 8.484375 -23.171875 "/></g></g></g></svg>